<svg xmlns="http://www.w3.org/2000/svg" xmlns:xlink="http://www.w3.org/1999/xlink" width="1136" height="794" viewBox="0 0 1136 794">
  <defs>
    <linearGradient id="linear-gradient" x1="0.493" y1="1.236" x2="0.514" y2="-0.278" gradientUnits="objectBoundingBox">
      <stop offset="0" stop-color="#001462"/>
      <stop offset="0.069" stop-color="#071e71"/>
      <stop offset="0.252" stop-color="#183594"/>
      <stop offset="0.437" stop-color="#2647b0"/>
      <stop offset="0.623" stop-color="#3054c4"/>
      <stop offset="0.81" stop-color="#365cd0"/>
      <stop offset="1" stop-color="#385fd4"/>
    </linearGradient>
    <linearGradient id="linear-gradient-2" x1="-2.16" y1="0.268" x2="5.982" y2="0.959" gradientUnits="objectBoundingBox">
      <stop offset="0.105" stop-color="#001462"/>
      <stop offset="0.297" stop-color="#132e89"/>
      <stop offset="0.49" stop-color="#2343aa"/>
      <stop offset="0.675" stop-color="#2e52c1"/>
      <stop offset="0.849" stop-color="#355bcf"/>
      <stop offset="1" stop-color="#385fd4"/>
    </linearGradient>
    <clipPath id="clip-About_Us">
      <rect width="1136" height="794"/>
    </clipPath>
  </defs>
  <g id="About_Us" data-name="About Us" clip-path="url(#clip-About_Us)">
    <rect width="1136" height="794" fill="#fff"/>
    <g id="Group_267" data-name="Group 267" transform="translate(-141.37 -269.763)">
      <path id="Path_527" data-name="Path 527" d="M767.152,269.82,667.216,296.6l73.158,73.158Z" transform="translate(216.673 0.069)" fill="none" stroke="#becce3" stroke-miterlimit="10" stroke-width="0.687"/>
      <path id="Path-Copy" d="M964.075,362.834C764.062,553.226,653.783,323.86,280.225,498.354S387.838,1198.8,936.941,996.016,1164.088,172.44,964.075,362.834Z" transform="translate(2.735 23.632)" fill="#f4f6f9"/>
      <circle id="Ellipse_40" data-name="Ellipse 40" cx="41.14" cy="41.14" r="41.14" transform="translate(1005.7 343.38) rotate(-8.846)" fill="none" stroke="#becce3" stroke-miterlimit="10" stroke-width="0.737"/>
      <circle id="Ellipse_41" data-name="Ellipse 41" cx="12.939" cy="12.939" r="12.939" transform="translate(1018.744 293.585) rotate(-67.63)" fill="#becce3"/>
      <g id="Group_266" data-name="Group 266" transform="translate(141.363 301.208)">
        <g id="Group_247" data-name="Group 247">
          <path id="Path_528" data-name="Path 528" d="M371.982,528.679l-1.306.6-2.376,1.154c-1.556.761-2.948,1.531-4.407,2.3q-4.217,2.343-8.167,4.832a178.016,178.016,0,0,0-15.054,10.637,204.34,204.34,0,0,0-26.387,24.709,227.28,227.28,0,0,0-21.69,28.423,253.425,253.425,0,0,0-16.9,31.1,275.04,275.04,0,0,0-12.382,32.747c-1.56,5.572-3.311,11.121-4.538,16.745l-1.98,8.417-1.622,8.454a353.525,353.525,0,0,0-5.16,41.746V687.619a258.743,258.743,0,0,1,10.345-38.44c7.543-22.567,18.688-48.7,31.061-76.969,10.14-23.118,18.8-43.453,26.832-59.952,7.988-16.474,15.963-28.645,22.473-35.143-6.432,6.436-18.542,14.783-31.609,28.77a203.635,203.635,0,0,0-38.062,57.3,272.347,272.347,0,0,0-21.039,78.687V527.733a102.669,102.669,0,0,1,10.34-22.749c7.526-12.947,17.924-27.281,28.367-43.754a286.193,286.193,0,0,0,19.493-37.361c4.8-10.95,8.712-19.561,11.942-24.362-3.252,4.831-11.412,9.836-20.767,17.569-9.4,7.67-20.4,17.9-29.5,32.254a141.751,141.751,0,0,0-19.877,51.1V456.723c3.071-20.15,9.551-50.526,9.551-85.661,0-37.632-11.137-65.77-11.137-79.062,0,13.292-11.138,41.429-11.138,79.062,0,35.146,6.484,65.529,9.554,85.68v47.614a304.694,304.694,0,0,0-22.854-86.283,240.455,240.455,0,0,0-40.218-62.658c-13.705-15.5-26.258-25.28-33.7-31.771,7.567,6.6,15.867,20.088,24.458,37.985,8.667,17.93,17.96,40.208,29.051,65.37,13.316,30.881,24.993,59.413,32.858,84.035a273.86,273.86,0,0,1,10.405,42.192v73.493q-1.453-13.672-3.829-27.1a439.378,439.378,0,0,0-14.713-58.891,506.721,506.721,0,0,0-21.877-56.288c-4.182-9.191-8.813-18.255-13.7-27.283a262.464,262.464,0,0,0-17.2-27.214c8,10.8,9.091,22.057,8.118,32.874a89.3,89.3,0,0,1-3.411,15.734c-1.615,5.069-3.489,9.887-5.3,14.363-2.663,6.469-2.247,11.356-.065,15.425,2.069,4.117,5.775,7.478,9.616,10.688,7.453,6.46,15.355,12.547,9.842,21.488-5.347,8.863-11.884,17.187-11.36,26.83.191,4.856,1.982,10.082,6.59,16.151,4.311,6.144,11.577,13.07,21.875,22.079a123.611,123.611,0,0,1,16.971,18.03,154.223,154.223,0,0,1,11.758,18.036c3,5.569,5.041,10.476,6.508,13.941.061.15.114.281.174.425v84.038c-.3-1.879-9.562-54.862-41.038-84.166-29.577-27.535-57.179-36.292-64.436-40.324,7.316,4.045,48.957,55.471,62.56,73.185,20.987,27.333,42.906,61.547,42.906,99.412a.3.3,0,0,0,.007.051V902.867h3.17V758.019a51.4,51.4,0,0,1,2.592-9.7,64.778,64.778,0,0,1,8.694-15.335,97.169,97.169,0,0,1,11.735-12.458c4.266-3.694,8.594-6.966,12.662-9.935,5.99-4.242,8.485-8.858,9.236-13.82.932-4.9-.213-10.254-1-15.47-.446-2.621-.931-5.24-1.254-7.773a31.6,31.6,0,0,1-.008-7.149,11.3,11.3,0,0,1,7.776-10c10.112-3.79,20.572-5.909,27.056-13.458a23.847,23.847,0,0,0,4.3-6.819,44.325,44.325,0,0,0,3.01-9.694c1.562-7.708,2.361-17.813,3.619-32.278,1.622-17.937,9.146-35.221,17.386-47.065,8.14-12,16.539-18.638,17.953-19.151Z" transform="translate(-141.363 -292)" fill="#becce3"/>
          <path id="Path_529" data-name="Path 529" d="M819.185,570.618l1.028.472,1.867.906c1.224.6,2.319,1.2,3.465,1.812q3.313,1.841,6.418,3.8a140.018,140.018,0,0,1,11.832,8.359,160.632,160.632,0,0,1,20.74,19.421,178.679,178.679,0,0,1,17.046,22.34,198.942,198.942,0,0,1,13.286,24.441A216.067,216.067,0,0,1,904.6,677.9c1.227,4.38,2.6,8.741,3.567,13.162l1.556,6.617L911,704.326a277.908,277.908,0,0,1,4.055,32.81v-41.6a203.339,203.339,0,0,0-8.13-30.212c-5.929-17.737-14.688-38.278-24.413-60.495-7.969-18.169-14.778-34.152-21.087-47.12-6.278-12.948-12.547-22.514-17.663-27.621,5.055,5.058,14.574,11.618,24.842,22.612a160.022,160.022,0,0,1,29.915,45.034,214.081,214.081,0,0,1,16.536,61.845V569.874A80.694,80.694,0,0,0,906.925,552c-5.915-10.177-14.087-21.442-22.295-34.389a224.8,224.8,0,0,1-15.321-29.363c-3.776-8.608-6.847-15.376-9.386-19.147,2.556,3.8,8.969,7.729,16.323,13.807,7.386,6.029,16.035,14.065,23.183,25.35a111.374,111.374,0,0,1,15.623,40.164V514.063c-2.415-15.837-7.508-39.711-7.508-67.326,0-29.577,8.755-51.692,8.755-62.138,0,10.446,8.753,32.562,8.753,62.138,0,27.624-5.1,51.5-7.509,67.34V551.5a239.515,239.515,0,0,1,17.963-67.815,188.985,188.985,0,0,1,31.608-49.246c10.773-12.182,20.638-19.869,26.487-24.971-5.946,5.191-12.47,15.788-19.222,29.855-6.812,14.092-14.115,31.6-22.833,51.379-10.466,24.272-19.643,46.695-25.825,66.047a215.348,215.348,0,0,0-8.179,33.162v57.761q1.142-10.745,3.01-21.3a345.456,345.456,0,0,1,11.563-46.285,398.32,398.32,0,0,1,17.194-44.239c3.287-7.224,6.927-14.348,10.771-21.445A206.293,206.293,0,0,1,973.6,493.016c-6.286,8.488-7.145,17.336-6.381,25.838A70.333,70.333,0,0,0,969.9,531.22c1.269,3.983,2.742,7.77,4.163,11.288,2.093,5.085,1.765,8.926.051,12.124-1.625,3.236-4.538,5.877-7.559,8.4-5.857,5.078-12.067,9.862-7.734,16.889,4.2,6.966,9.339,13.508,8.927,21.087-.15,3.815-1.557,7.923-5.179,12.693-3.388,4.829-9.1,10.273-17.192,17.353a97.187,97.187,0,0,0-13.34,14.171,102.939,102.939,0,0,0-14.356,25.133l-.137.335v66.05c.237-1.478,7.516-43.12,32.255-66.151,23.245-21.641,44.94-28.525,50.643-31.692-5.75,3.179-38.478,43.6-49.17,57.52-16.5,21.481-33.722,48.372-33.722,78.134a.191.191,0,0,1-.006.039v90.121h-2.491V750.868a40.517,40.517,0,0,0-2.039-7.621,50.893,50.893,0,0,0-6.832-12.053,76.477,76.477,0,0,0-9.223-9.791c-3.354-2.9-6.755-5.474-9.952-7.809-4.708-3.334-6.668-6.961-7.259-10.861-.733-3.851.168-8.059.785-12.159.35-2.06.73-4.119.984-6.11a24.746,24.746,0,0,0,.007-5.619,8.882,8.882,0,0,0-6.111-7.862c-7.948-2.978-16.168-4.644-21.265-10.578a18.78,18.78,0,0,1-3.376-5.359,34.924,34.924,0,0,1-2.365-7.619c-1.228-6.058-1.855-14-2.845-25.369a80.3,80.3,0,0,0-13.664-36.99c-6.4-9.43-13-14.648-14.109-15.052Z" transform="translate(137.352 -253.845)" fill="#cdd8e9"/>
        </g>
        <g id="Group_257" data-name="Group 257" transform="translate(148.312 143.068)">
          <g id="Group_249" data-name="Group 249" transform="translate(217.818 44.399)">
            <path id="Path_530" data-name="Path 530" d="M426.879,776.862c4.866,20.564,12.023,43.649,19.452,65.425h123.2c2.776-8.954,5.538-18.571,8.16-28.779,15.136-58.953-.8-109.94-15.137-133.043s-26.689-50.589-4.815-84.285,23.936-59.911,23.936-59.911c-3.187-12.748-13.146-17.13-39.009-29.472,0,0-1.543-.515-3.941-1.326-5.477,22.247-17.038,39.938-37.514,43.545-26.681,4.7-50.766-11.576-62.946-40.147-11.747,3.468-24.828,7.165-31.061,10.669,0,0,32.663,70.9,38.89,111S411.988,713.926,426.879,776.862Z" transform="translate(-397.954 -391.508)" fill="#e85766"/>
            <g id="Group_248" data-name="Group 248" transform="translate(40.315 68.68)">
              <path id="Path_531" data-name="Path 531" d="M492.151,562.229c20.476-3.6,32.036-21.3,37.514-43.543-8.57-2.9-28.725-9.819-34.328-12.621-7.169-3.585-5.178-32.663-5.178-32.663l-37.858,10.8v28.232c0,2.646-10.819,6.022-23.1,9.646C441.385,550.655,465.469,566.929,492.151,562.229Z" transform="translate(-429.205 -473.402)" fill="#cdd8e9"/>
              <path id="Path_532" data-name="Path 532" d="M483.419,473.734l-37.858,10.8v23.995c16,8.643,33.948,24.685,40.045,53.987,20.352-3.685,31.86-21.326,37.319-43.5-8.57-2.9-28.725-9.819-34.327-12.621C481.428,502.812,483.419,473.734,483.419,473.734Z" transform="translate(-422.466 -473.265)" fill="#cdd8e9"/>
            </g>
            <path id="Path_533" data-name="Path 533" d="M519.4,599.162c-16.9,5.168-32.838,10.849-41.278,10.849-16.73,0-41.427-23.5-53.107-9.134s-13.414,23.872-4.27,30.246,38.256-2.391,52.2.4c6.221,1.244,27.444,2.326,49.99,1.978C524.855,624.537,524.577,608.154,519.4,599.162Z" transform="translate(-394.78 -354.114)" fill="#f5f7fa"/>
            <path id="Path_534" data-name="Path 534" d="M539.849,528.583c-3.927-15.708-36.249,13.145-28.28,39.434,6.83,22.543,4.346,52.834,4.346,52.834l31.645,32.011C558.315,639.718,543.036,541.33,539.849,528.583Z" transform="translate(-355.472 -383.821)" fill="#e85766"/>
            <path id="Path_535" data-name="Path 535" d="M535.266,592.844c-12.237-1.788-29.756,2.8-46.354,7.874,5.175,8.992,5.453,25.374,3.534,34.337,27.97-.432,57.977-3.066,63.932-10.343C556.377,624.711,570.718,598.022,535.266,592.844Z" transform="translate(-364.289 -355.669)" fill="#e85766"/>
            <path id="Path_536" data-name="Path 536" d="M440.489,444.416c-6.645,12.923-5.907,56.859,12.553,60.921,16.127,3.547,25.107-12.185,25.107-12.185V464.011a21.312,21.312,0,0,1-10.339-15.9c-.994-8.93-6.276-9.877-6.276-9.877S450.458,444.786,440.489,444.416Z" transform="translate(-385.816 -419.214)" fill="#f5f7fa"/>
            <path id="Path_537" data-name="Path 537" d="M426.621,627.064c-8.335-16.781-13.873-37.939-18.752-49.878-9.209-22.533-10.708-53.948,2.039-61.119,23.5-12.034,33.46,29.352,35.053,41.364s4.781,40.086,13.544,50.149Z" transform="translate(-400.654 -388.036)" fill="#e85766"/>
            <path id="Path_538" data-name="Path 538" d="M516.719,518.483c-15.929-9.956,1.827-64.873-24.89-86-22-17.4-57.079-4.314-57.079,28.539v78.742c8.7-2.717,15.266-5.22,15.266-7.282V509.35c-14.661-9.334-14.963-47.278-8.738-59.385,9.969.37,21.045-6.185,21.045-6.185s5.282.946,6.276,9.877a21.312,21.312,0,0,0,10.339,15.9V498.7c0,27.361,6.586,57.281,22.183,58.94s18.252-18.916,30.2-17.588C531.321,540.053,532.648,528.438,516.719,518.483Z" transform="translate(-386.605 -424.763)" fill="#3f5f94"/>
            <path id="Path_539" data-name="Path 539" d="M441.826,565.922c-8.7,11.892-22.33,22.286-22.782,39.715,7.4,14.884,17,26.323,30.291,24.825,19.6-2.207,26.375-25.263,28.693-46.371C464.941,585.1,448.266,574.739,441.826,565.922Z" transform="translate(-393.077 -366.6)" fill="#e85766"/>
            <path id="Path_540" data-name="Path 540" d="M464.766,489.937c-3.738,1.7-16.985,13.248-16.985,16.134s5.945,24.63,5.945,31.253-6.072,35.486-14.041,52.565a44.583,44.583,0,0,1-4.506,7.391c6.44,8.817,23.115,19.177,36.2,18.169a230.107,230.107,0,0,0,1.182-24.93s1.339-48.28,3.527-51.712c2-3.133,1.981-8.3,1.981-12.7v-8.947s3.042-.195,3.218-5.424c0-.155.007-.315.007-.48C481.3,505.563,468.5,488.238,464.766,489.937Z" transform="translate(-386.429 -397.957)" fill="#f5f7fa"/>
          </g>
          <g id="Group_254" data-name="Group 254" transform="translate(312.425 24.15)">
            <g id="Group_250" data-name="Group 250" transform="translate(304.28)">
              <path id="Path_541" data-name="Path 541" d="M683.2,505.029V645.955s47.032,1.435,45.6,0,0-65.474,0-65.474Z" transform="translate(-683.122 -371.441)" fill="#6d8cc1"/>
              <path id="Path_542" data-name="Path 542" d="M759.2,618.111c3.889,26.377,1.456,56.432,0,67.786s-34.9,112.84-34.9,112.84h81.533l22.45-107.513-29.8-82.136Z" transform="translate(-666.185 -328.564)" fill="url(#linear-gradient)"/>
              <path id="Path_543" data-name="Path 543" d="M761.148,618.111c3.889,26.377,1.456,56.432,0,67.786s-41.568,113.7-41.568,113.7h88.2l22.45-108.368-29.8-82.136Z" transform="translate(-668.131 -328.564)" fill="#385483"/>
              <path id="Path_544" data-name="Path 544" d="M841.378,595.673c12.01,37.645,65.834,49.818,50.985,110.626-10.719,43.893-32.581,98.822-32.581,98.822H758.024s31.913-95.7,31.913-108.368-20.037-77.8-20.037-77.8Z" transform="translate(-652.291 -334.092)" fill="#385483"/>
              <path id="Path_545" data-name="Path 545" d="M699.675,482.454c-12.012,5.724-22.982,31.22-12.012,55.154s12.532,19.656,16.695,38.446,2.526,29.2,36.905,52.61,33.338,29.658,34.9,41.626,98.34,9.366,96.78-35.382.906-96.421-27.9-120.794S699.675,482.454,699.675,482.454Z" transform="translate(-683.144 -380.743)" fill="#6d8cc1"/>
              <path id="Path_546" data-name="Path 546" d="M686.344,443.215V577.531s48.765-26.166,48.33-51.767-22.048-82.549-22.048-82.549Z" transform="translate(-681.826 -396.911)" fill="#385483"/>
              <path id="Path_547" data-name="Path 547" d="M710.6,508.535s6.493,10.511,8.7,15.028-7.569,24.49-4.348,41.61,24.4,14.2,29.139,0c1.426-4.28,5.215-34.653,5.215-34.653V480.291Z" transform="translate(-671.832 -381.634)" fill="#becce3"/>
              <path id="Path_548" data-name="Path 548" d="M719.294,523.563c13.7-15.352,27.889,49.654,5.425,52.951.054.013.11.018.164.031l3.217.356a17.17,17.17,0,0,0,15.986-11.728c1.426-4.28,5.215-34.653,5.215-34.653V480.291l-38.7,28.244S717.092,519.046,719.294,523.563Z" transform="translate(-671.832 -381.634)" fill="#becce3"/>
              <path id="Path_549" data-name="Path 549" d="M691.075,451.234c-6.663,41.322.664,79.417,20.59,83.929s48.49-17.278,48.49-36.5,19.263-69.314-2.657-80.749S695.321,424.9,691.075,451.234Z" transform="translate(-680.865 -408.762)" fill="#cdd8e9"/>
              <path id="Path_550" data-name="Path 550" d="M708.785,449.129s-10.408,8.742-18.042,13.279-5.764-21.664,9.02-33.977,34.174-22.795,42.034-15.72c0,0,24.627-6.812,39.563,18.34s15.982,47.685,20.7,53.972,12.576,10.218,8.909,22.008c0,0,26.2-5.24,30.13,12.838s2.622,23.924,2.622,23.924-8.143-6.37-24.843-12.216c0,0-11.248,8.859-21.99,8.859s-24.276,43.341-43.139,43.341l-.158-103.209S710.976,475.134,708.785,449.129Z" transform="translate(-681.826 -410.422)" fill="#385483"/>
            </g>
            <g id="Group_252" data-name="Group 252" transform="translate(0 82.92)">
              <path id="Path_551" data-name="Path 551" d="M559.8,593.329c-49.5,51.545-92.141,208.779-92.141,208.779H538.72l44.417-104.389Z" transform="translate(-467.655 -417.978)" fill="#ffdf67"/>
              <path id="Path_552" data-name="Path 552" d="M791.249,612.956c-10.357-11.769-65.522-50.49-135.855-46.282-62.017,3.712-112.18,22.869-121.958,37.769-7.152,10.9,8.515,84.461,19.413,113.75a256.862,256.862,0,0,1,15.667,87.187s175.394-1.021,176.416,0,21.8-64.708,24.52-97.4S766.046,639.181,791.249,612.956Z" transform="translate(-441.295 -429.092)" fill="#ffbf40"/>
              <path id="Path_553" data-name="Path 553" d="M668.354,523.356s.875,54.51,0,70.783-26.1,30.917-35.452,31.323-30.1-13.424-33.357-36.611V539.628Z" transform="translate(-413.311 -446.81)" fill="#cdd8e9"/>
              <path id="Path_554" data-name="Path 554" d="M668.684,552.972c-.109-15.8-.33-29.616-.33-29.616l-68.809,16.272V579.99c5.733,25.229,43.786,18.333,52.846-5.576C657.583,560.709,662.022,556.639,668.684,552.972Z" transform="translate(-413.311 -446.81)" fill="#becce3"/>
              <path id="Path_555" data-name="Path 555" d="M586.663,522.506c2.584,39.938,18.862,78.6,44.653,74.523,31.99-5.057,41.7-53.571,40.439-80.015s-16.33-42.97-39.266-42.992C610.671,474,584.476,488.693,586.663,522.506Z" transform="translate(-418.671 -467.137)" fill="#cdd8e9"/>
              <path id="Path_556" data-name="Path 556" d="M655.688,522.267c-1.711,7.962-5.586,14-8.654,13.491s-4.168-7.382-2.457-15.345,5.586-14,8.654-13.492S657.4,514.3,655.688,522.267Z" transform="translate(-395.089 -453.594)" fill="#becce3"/>
              <path id="Path_557" data-name="Path 557" d="M588.441,530.763c-4.874-7.457-5.213-10.388-4.855-22.773s10.808-12.82,10.589-18.114,6.532-19.514,34.106-20.657,25.918,11.494,34.457,12.317,21.781,9.582,15.333,40.936c0,0-7.5.716-10.449,15.867a1.36,1.36,0,0,1-2.4.456,19.867,19.867,0,0,1-2.528-5.808c-2.059-7.573-10.309,3.808-11.807-11.294-1.068-10.757-27.322,8.988-46.8-8.468,0,0-2.893,3.851-11.19,3.6C588.075,516.691,588.441,530.763,588.441,530.763Z" transform="translate(-419.929 -469.146)" fill="#6d8cc1"/>
              <g id="Group_251" data-name="Group 251" transform="translate(162.641 139.844)">
                <path id="Path_558" data-name="Path 558" d="M606.413,634.317s2.271,2.9,6.511-3.572,18.745-26.137,23.773-24.2l-.021-.034c-10.2-2.12-27.33-15.38-30.263-36.282V568.54c-8.114,1.13-15.891,2.509-23.282,4.074C581.088,584.163,589.752,621.552,606.413,634.317Z" transform="translate(-582.836 -568.036)" fill="#ffbf40"/>
                <path id="Path_559" data-name="Path 559" d="M657.329,575.668c-.761,14.15-19.93,27.065-31.069,30.461h0c5.258-2.046,24.588,23.381,27.937,28.982s9.5-1.98,15.623-17.611c4.444-11.349,11.313-30.905,8.433-44.714a197.881,197.881,0,0,0-20.679-4.6C657.514,571.124,657.435,573.691,657.329,575.668Z" transform="translate(-564.944 -568.183)" fill="#ffbf40"/>
              </g>
              <path id="Path_560" data-name="Path 560" d="M605.715,573.2V561.345c-10.282,4.516-19.811,8.334-20.859,14.218-2.055,11.532,7.2,45.048,20.859,56.881,0,0,2.271,2.9,6.512-3.573s18.745-21.3,23.773-19.358l-.023-.034C625.773,607.361,608.648,594.1,605.715,573.2Z" transform="translate(-419.481 -431.156)" fill="#ffdf67"/>
              <path id="Path_561" data-name="Path 561" d="M674.527,572.371c-2.845-6.439-12.077-11.671-16.8-13.907-.025,8.752-.131,16.551-.383,21.209-.761,14.15-19.93,27.065-31.069,30.461h0c5.258-2.046,24.588,18.542,27.937,24.145S661.7,633.352,668.5,618C675.42,602.374,679.17,582.873,674.527,572.371Z" transform="translate(-402.298 -432.344)" fill="#ffdf67"/>
              <path id="Path_562" data-name="Path 562" d="M762.387,759.1c0-45.2-13.169-135.792-34.057-159.746,0,0-32.7,17.488-43.039,72.918-3.091,16.56,2.17,63.879,3.533,83.86Z" transform="translate(-378.375 -415.494)" fill="#ffdf67"/>
              <path id="Path_563" data-name="Path 563" d="M649.531,763.712h99.213c14.7,0,30.5-12,28.283-44.5s-55.4-27.944-73.563-2.968L648.8,724.594Z" transform="translate(-393.015 -375.603)" fill="#ffdf67"/>
              <path id="Path_564" data-name="Path 564" d="M631.646,755l4.692-4.4,14.27,5.058a23.1,23.1,0,0,0,7.717,1.327h28.321s13.4-2.871,13.839-18.688-13.181-20.43-19.112-20.43H650.321a22.671,22.671,0,0,1-4.63-.479l-22.081-4.615a13.592,13.592,0,0,0-9.552,1.519l-12.514,7.189a31.607,31.607,0,0,0-6.622,5.075l-22.708,22.758a4.5,4.5,0,0,0,3.183,7.67h51.23A7.342,7.342,0,0,0,631.646,755Z" transform="translate(-425.118 -368.879)" fill="#cdd8e9"/>
            </g>
            <g id="Group_253" data-name="Group 253" transform="translate(187.09 136.559)">
              <path id="Path_565" data-name="Path 565" d="M846.934,509.63c-21.267-12.293-58.542,22.67-50.523,64s-37.368,92.6-37.368,92.6S707.6,686.886,686.955,690.8a79.95,79.95,0,0,1,13.163,30.932c33.782-2.782,82.253-9.651,101.843-25.976,29.608-24.673,61.057-115.656,61.065-144.562C863.035,517.558,846.934,509.63,846.934,509.63Z" transform="translate(-564.384 -507.133)" fill="#6d8cc1"/>
              <path id="Path_566" data-name="Path 566" d="M717.341,637.843H650.833s-47.494,16.087-48.728,18.838-3.7,19.111,0,22.958,27.757,10.633,33.926,9.4,54.279-19.12,65.382-19.12c3.756,0,17.2-.357,34.472-1.781a79.95,79.95,0,0,0-13.163-30.932A30.652,30.652,0,0,1,717.341,637.843Z" transform="translate(-600.151 -453.537)" fill="#cdd8e9"/>
            </g>
          </g>
          <g id="Group_256" data-name="Group 256">
            <path id="Path_567" data-name="Path 567" d="M381.3,616.781s16.665,13.186,33.708,0,5.3-35.7,5.3-35.7L381.3,601.858Z" transform="translate(-190.811 -315.956)" fill="#6d8cc1"/>
            <path id="Path_568" data-name="Path 568" d="M407.683,518.86v98.6H375.621v-93.2Z" transform="translate(-193.152 -341.592)" fill="#6d8cc1"/>
            <g id="Group_255" data-name="Group 255" transform="translate(48.228 348.381)">
              <path id="Path_569" data-name="Path 569" d="M370.581,712.427c-3.085,16.452-20.62,39.563-31.771,72.926h63.718c6.111-40.083,11.631-93.882,2.919-141.7H368.706C372.1,659.768,373.483,696.948,370.581,712.427Z" transform="translate(-256.547 -638.554)" fill="#385483"/>
              <path id="Path_570" data-name="Path 570" d="M318.035,708.86s7.375,35.8,12.413,76.493H347.37c11.151-33.364,28.686-56.475,31.771-72.926,2.9-15.479,1.517-52.659-1.875-68.778H319.554Z" transform="translate(-265.107 -638.554)" fill="url(#linear-gradient-2)"/>
              <path id="Path_571" data-name="Path 571" d="M392.71,645.136a34.706,34.706,0,0,0-1.4-5.095H280.552c1.526,53.31,5.727,106.363,8.252,146.8h74.011c11.151-33.364,28.686-56.475,31.771-72.926C397.487,698.435,396.1,661.254,392.71,645.136Z" transform="translate(-280.552 -640.041)" fill="#3f5f94"/>
            </g>
            <path id="Path_572" data-name="Path 572" d="M368.35,458.236c-65.515-17.578-109.765,11.671-117.029,53.675-6.635,38.362,41.534,157.149,41.534,205.185,0,0,77.655,40.03,148.9,5.095,0,0-10.686-50.947,0-96.071s24.893-70.978,12.824-103.349C444.034,494.49,398.991,466.458,368.35,458.236Z" transform="translate(-244.627 -368.715)" fill="#6d8cc1"/>
            <path id="Path_573" data-name="Path 573" d="M362.485,426.066s-24.729,31.1-35.16,41.009,8.818,30.189,23.424,38.8c9.647,5.685,29.992,12,23.992-5.739,0,0-3.389-9.91,13.04-23.993C387.782,476.138,369.527,421.632,362.485,426.066Z" transform="translate(-214.276 -379.933)" fill="#f5f7fa"/>
            <path id="Path_574" data-name="Path 574" d="M378.23,473.122s-8.464-25.263-16.089-39.992l-8.056,3.8c-9.384,19.252-11.068,55.524,11.1,60.184C365.19,497.115,361.8,487.206,378.23,473.122Z" transform="translate(-204.725 -376.916)" fill="#cdd8e9"/>
            <path id="Path_575" data-name="Path 575" d="M362.145,428.546c2.094-11.858-8.5-12.748-11.826-2.851-3.8,11.308.387,19.145,4.737,16.534,0,0-8.444,25.537,2.186,40.917s24.2,9.468,41.164-7.238c14.588-14.365,24.084-31.915,25.558-38.676,3.845-17.641-14.473-31.909-31.665-30.984C371.265,407.377,362.145,428.546,362.145,428.546Z" transform="translate(-204.188 -388.011)" fill="#f5f7fa"/>
            <path id="Path_576" data-name="Path 576" d="M359.986,433.856c-.662,6.981.48,12.391,4.586,10.013s13.832-16.425,22.693-6.268,16.045,19.612,31.77,17.939c20.316-2.16,25.027-29.656,7.132-34.579,0,0,7.78-9.447-6.051-13.831-12.663-4.016-13.17-1.526-22.032-11.467-5.1-5.723-35.672-2.67-44.009,28.739C354.075,424.4,361.018,422.977,359.986,433.856Z" transform="translate(-202.029 -393.32)" fill="#385483"/>
            <path id="Path_577" data-name="Path 577" d="M303.9,607.075c.65-13.66,9.1-49.1,21.017-71.747s6.069-51.765-10.13-63.165c-16.089-11.323-38.649-9.314-49.332,6.456-28.729,42.406-20.387,137.75-4.894,169.928,3.075,6.39,10.493,10.541,20.555,13.036C259.3,651.62,281.173,601.882,303.9,607.075Z" transform="translate(-246.397 -363.792)" fill="#6d8cc1"/>
            <path id="Path_578" data-name="Path 578" d="M347.191,609.1l43.04-52.079A7.4,7.4,0,0,1,397.9,554.6l73.021,20.122a2.366,2.366,0,0,1,.956,4.036l-55.231,49.856a4.79,4.79,0,0,1-4.315,1.107l-63.237-14.955A3.52,3.52,0,0,1,347.191,609.1Z" transform="translate(-205.199 -326.974)" fill="#223553"/>
            <path id="Path_579" data-name="Path 579" d="M432.536,583.955c-2.5-7.151-9.651-12.513-13.823-13.705-3.03-.866-25.554-.474-37.652-.195a26.027,26.027,0,0,0-13.27,3.959c-3.81,2.393-8.563,5.045-10.922,5.045H318.837a132.692,132.692,0,0,0-22.443-13.337c-22.725-5.193-44.6,44.544-22.785,54.508,36.676,9.095,109.063-4.182,139.49-14.579a33.328,33.328,0,0,0,16.772-12.372C432.036,590.148,433.509,586.735,432.536,583.955Z" transform="translate(-238.893 -322.439)" fill="#f5f7fa"/>
          </g>
        </g>
        <line id="Line_7" data-name="Line 7" x2="977.615" transform="translate(84.242 638.22)" fill="#223553"/>
        <g id="Group_258" data-name="Group 258" transform="translate(356.751 475.242)">
          <path id="Path_580" data-name="Path 580" d="M567.848,754.455H672.055a10.818,10.818,0,0,0,10.819-10.819h0a4.934,4.934,0,0,0-4.934-4.935H567.848a4.935,4.935,0,0,0-4.935,4.935v5.884A4.936,4.936,0,0,0,567.848,754.455Z" transform="translate(-324.418 -583.183)" fill="#223553"/>
          <path id="Path_581" data-name="Path 581" d="M453,799.836H670.668a12.719,12.719,0,0,0,12.265-16.089L644.514,643.895a20.854,20.854,0,0,0-20.11-15.331H406.739a12.72,12.72,0,0,0-12.265,16.089l38.419,139.853A20.855,20.855,0,0,0,453,799.836Z" transform="translate(-394.012 -628.564)" fill="#223553"/>
        </g>
        <g id="Group_265" data-name="Group 265" transform="translate(923.064 486.122)">
          <g id="Group_262" data-name="Group 262">
            <g id="Group_259" data-name="Group 259" transform="translate(63.176 52.12)">
              <path id="Path_582" data-name="Path 582" d="M907.728,673.18c-3.286.891-7.835,4.527-12.854,9.353-5.093,4.788-10.606,10.467-17.54,15.655-4.214,3.253-8.382,6.2-12.4,9.071-3.931,2.933-7.834,5.671-11.209,8.474-6.864,5.491-12.105,10.909-13.911,14.979,1.806-4.026,2.574-11.5,6-20.555a66.345,66.345,0,0,1,7.275-14.146,59.47,59.47,0,0,1,12.571-13.268,47.968,47.968,0,0,1,25.452-9.13C898.684,672.981,904.472,674.074,907.728,673.18Z" transform="translate(-839.813 -673.18)" fill="#dce5f2"/>
            </g>
            <g id="Group_260" data-name="Group 260" transform="translate(56.299)">
              <path id="Path_583" data-name="Path 583" d="M839.129,742.875c.32-4.053-1.661-10.562-2.972-19.142a81.647,81.647,0,0,1,.542-30.86c3.249-14.191,9.455-26.223,15.4-35.562,5.925-9.389,11.526-16.182,13.669-21.042-2.149,4.87-3.308,13.613-4.554,24.3-1.292,10.706-2.594,23.3-5.637,36.586-2.447,10.874-6.388,20.083-9.822,27.807C842.3,732.661,839.448,738.814,839.129,742.875Z" transform="translate(-834.943 -636.269)" fill="#dce5f2"/>
            </g>
            <g id="Group_261" data-name="Group 261" transform="translate(0 36.507)">
              <path id="Path_584" data-name="Path 584" d="M795.072,662.123c3.26,1.517,9.506,1.546,17.238,3.859a52.354,52.354,0,0,1,24.543,14.89,67.239,67.239,0,0,1,15.556,32.343c1.958,10.1,1.4,18.059,2.389,22.652-.986-4.657-5.212-11.44-11.193-18.626-5.922-7.3-13.571-14.866-21.143-23.414-6.281-6.906-11.02-13.889-15.5-19.774C802.577,668.126,798.378,663.645,795.072,662.123Z" transform="translate(-795.072 -662.123)" fill="#dce5f2"/>
            </g>
          </g>
          <g id="Group_264" data-name="Group 264" transform="translate(26.4 80.573)">
            <g id="Group_263" data-name="Group 263">
              <path id="Path_585" data-name="Path 585" d="M885.932,695.281H821.677a5.688,5.688,0,0,0-5.647,6.36l7.838,65.692a5.687,5.687,0,0,0,5.647,5.013h48.578a5.687,5.687,0,0,0,5.647-5.013l7.837-65.692A5.686,5.686,0,0,0,885.932,695.281Z" transform="translate(-812.854 -692.526)" fill="#dce5f2"/>
              <path id="Path_586" data-name="Path 586" d="M813.788,696.324l2.9,24.324a2.676,2.676,0,0,0,2.657,2.361H890.09a2.677,2.677,0,0,0,2.657-2.361l2.9-24.324a2.676,2.676,0,0,0-2.657-2.994H816.446A2.678,2.678,0,0,0,813.788,696.324Z" transform="translate(-813.769 -693.33)" fill="#adbfdc"/>
            </g>
          </g>
        </g>
      </g>
    </g>
  </g>
</svg>
